<svg width="67" height="66" viewBox="0 0 67 66" fill="none" xmlns="http://www.w3.org/2000/svg">
<path d="M6.89194 44.9498C6.53825 44.9498 6.19905 45.1146 5.94895 45.408C5.69886 45.7015 5.55835 46.0994 5.55835 46.5144V64.201C5.55835 64.6159 5.69886 65.0139 5.94895 65.3073C6.19905 65.6007 6.53825 65.7656 6.89194 65.7656C7.24564 65.7656 7.58484 65.6007 7.83493 65.3073C8.08503 65.0139 8.22554 64.6159 8.22554 64.201V46.5144C8.22554 46.0994 8.08503 45.7015 7.83493 45.408C7.58484 45.1146 7.24564 44.9498 6.89194 44.9498Z" fill="white"/>
<path d="M14.1147 34.6234C15.3606 34.6259 16.579 34.1945 17.6158 33.384C18.6526 32.5734 19.461 31.4202 19.9388 30.0702C20.4165 28.7202 20.5421 27.2342 20.2995 25.8005C20.057 24.3667 19.4573 23.0497 18.5763 22.0161C17.6954 20.9825 16.5728 20.2789 15.3508 19.9943C14.1287 19.7098 12.8623 19.8571 11.7116 20.4176C10.561 20.9781 9.57803 21.9266 8.88718 23.143C8.19634 24.3594 7.82871 25.789 7.83082 27.2507C7.83364 29.205 8.4966 31.0784 9.67445 32.4603C10.8523 33.8423 12.449 34.6201 14.1147 34.6234ZM14.1147 22.9948C14.8326 22.9924 15.535 23.2399 16.1329 23.706C16.7308 24.1721 17.1974 24.836 17.4736 25.6134C17.7498 26.3908 17.8231 27.2469 17.6844 28.0733C17.5456 28.8997 17.201 29.6592 16.6941 30.2556C16.1872 30.8521 15.5409 31.2586 14.837 31.4239C14.1331 31.5891 13.4032 31.5056 12.7397 31.1838C12.0763 30.8621 11.5091 30.3166 11.1101 29.6164C10.711 28.9163 10.498 28.093 10.498 27.2507C10.498 26.1241 10.8787 25.0435 11.5567 24.2458C12.2346 23.448 13.1545 22.9982 14.1147 22.9948Z" fill="white"/>
<path d="M61.8256 36.0247H56.2885C56.074 36.036 55.865 36.1079 55.6793 36.2343C55.4935 36.3607 55.3365 36.5379 55.2216 36.7507L52.8532 41.0691L50.4634 36.7382C50.3485 36.5254 50.1915 36.3482 50.0058 36.2218C49.82 36.0954 49.611 36.0235 49.3965 36.0122H43.8594C42.4964 36.0155 41.1901 36.6522 40.2263 37.7829C39.2625 38.9137 38.7198 40.4463 38.717 42.0454V48.4667L33.5533 50.5571L28.283 48.4667V42.0329C28.283 40.435 27.7426 38.9023 26.7806 37.7712C25.8185 36.6401 24.5133 36.003 23.1513 35.9997H17.6142C17.3997 36.011 17.1906 36.0829 17.0049 36.2093C16.8192 36.3357 16.6622 36.5128 16.5473 36.7257L14.1682 41.0441L11.789 36.7257C11.6699 36.5034 11.5046 36.3201 11.3087 36.1932C11.1128 36.0662 10.8926 35.9996 10.6688 35.9997H5.14235C3.77851 35.9997 2.47054 36.6353 1.50616 37.7668C0.54178 38.8982 0 40.4328 0 42.0329V64.1756C0 64.5906 0.140507 64.9886 0.390605 65.282C0.640703 65.5754 0.979906 65.7403 1.3336 65.7403C1.68729 65.7403 2.02649 65.5754 2.27659 65.282C2.52669 64.9886 2.66721 64.5906 2.66721 64.1756V42.058C2.66721 41.2878 2.92798 40.5491 3.39216 40.0045C3.85634 39.4599 4.48589 39.154 5.14235 39.154H9.92198L13.0266 44.8117C13.1553 45.0186 13.3239 45.1869 13.5186 45.303C13.7132 45.419 13.9285 45.4795 14.1468 45.4795C14.3652 45.4795 14.5804 45.419 14.7751 45.303C14.9698 45.1869 15.1383 45.0186 15.2671 44.8117L18.3717 39.154H23.1833C23.5078 39.154 23.8292 39.2292 24.1289 39.3753C24.4286 39.5214 24.7007 39.7355 24.9297 40.0053C25.1587 40.2751 25.34 40.5953 25.4633 40.9476C25.5865 41.2998 25.6492 41.6772 25.6478 42.058V49.5682C25.6519 49.7611 25.6844 49.9516 25.7438 50.1315L25.8078 50.2566C25.8617 50.3807 25.926 50.4981 25.9998 50.6071L26.0959 50.7073C26.1874 50.8089 26.2918 50.8933 26.4053 50.9576H26.4906H26.5546L33.0519 53.5987C33.3373 53.6989 33.6414 53.6989 33.9268 53.5987L40.424 50.9576H40.4881H40.5734C40.6869 50.8933 40.7912 50.8089 40.8828 50.7073L40.9682 50.6071C41.0489 50.5015 41.117 50.3836 41.1709 50.2566L41.2242 50.1315C41.2887 49.9534 41.3214 49.7617 41.3202 49.5682V42.058C41.3202 41.2878 41.581 40.5491 42.0452 40.0045C42.5093 39.4599 43.1389 39.154 43.7954 39.154H48.607L51.7116 44.8117C51.832 45.0317 51.9978 45.2124 52.1937 45.3372C52.3895 45.4619 52.609 45.5266 52.8318 45.5252C53.0541 45.5232 53.2726 45.4571 53.4679 45.3327C53.6633 45.2082 53.8295 45.0293 53.9521 44.8117L57.0567 39.154H61.8576C62.5141 39.154 63.1437 39.4599 63.6079 40.0045C64.072 40.5491 64.3328 41.2878 64.3328 42.058V64.2007C64.3328 64.6157 64.4733 65.0136 64.7234 65.3071C64.9735 65.6005 65.3127 65.7653 65.6664 65.7653C66.0201 65.7653 66.3593 65.6005 66.6094 65.3071C66.8595 65.0136 67 64.6157 67 64.2007V42.058C67 41.2625 66.8659 40.4749 66.6055 39.7404C66.3451 39.006 65.9634 38.3392 65.4825 37.7785C65.0016 37.2177 64.431 36.7741 63.8034 36.4731C63.1758 36.1722 62.5036 36.0198 61.8256 36.0247Z" fill="white"/>
<path d="M60.0653 44.9498C59.7116 44.9498 59.3724 45.1146 59.1223 45.408C58.8722 45.7015 58.7317 46.0994 58.7317 46.5144V64.201C58.7317 64.6159 58.8722 65.0139 59.1223 65.3073C59.3724 65.6007 59.7116 65.7656 60.0653 65.7656C60.419 65.7656 60.7582 65.6007 61.0083 65.3073C61.2584 65.0139 61.3989 64.6159 61.3989 64.201V46.5144C61.3989 46.0994 61.2584 45.7015 61.0083 45.408C60.7582 45.1146 60.419 44.9498 60.0653 44.9498Z" fill="white"/>
<path d="M45.5664 44.9497C45.2128 44.9497 44.8736 45.1145 44.6235 45.4079C44.3734 45.7014 44.2328 46.0993 44.2328 46.5143V54.0245L34.3109 57.7796L33.9801 57.8547H33.8415H33.7028H33.4467H33.1373H32.9773H32.8386H32.6572L22.7246 54.0621V46.5518C22.7246 46.1369 22.5841 45.7389 22.334 45.4455C22.0839 45.1521 21.7447 44.9872 21.391 44.9872C21.0373 44.9872 20.6981 45.1521 20.448 45.4455C20.1979 45.7389 20.0574 46.1369 20.0574 46.5518V64.2384C20.0574 64.6534 20.1979 65.0513 20.448 65.3447C20.6981 65.6382 21.0373 65.803 21.391 65.803C21.7447 65.803 22.0839 65.6382 22.334 65.3447C22.5841 65.0513 22.7246 64.6534 22.7246 64.2384V57.354L31.9317 60.8963L32.4332 61.0215L32.6892 61.0841H32.9879H33.4787C33.667 61.0956 33.8558 61.0956 34.0441 61.0841H34.3215H34.5776L35.111 60.9339L44.2649 57.4166V64.2634C44.2649 64.6784 44.4054 65.0763 44.6555 65.3698C44.9056 65.6632 45.2448 65.828 45.5985 65.828C45.9521 65.828 46.2913 65.6632 46.5414 65.3698C46.7915 65.0763 46.932 64.6784 46.932 64.2634V46.5143C46.9321 46.3056 46.8966 46.0991 46.8276 45.9067C46.7586 45.7144 46.6575 45.5402 46.5302 45.3945C46.403 45.2487 46.2521 45.1342 46.0866 45.0578C45.9211 44.9814 45.7443 44.9447 45.5664 44.9497Z" fill="white"/>
<path d="M46.5051 27.2502C46.5051 28.7114 46.8746 30.1397 47.5667 31.3545C48.2588 32.5692 49.2425 33.5158 50.3933 34.0744C51.5441 34.633 52.8103 34.7785 54.0317 34.4925C55.253 34.2065 56.3745 33.5019 57.2544 32.4679C58.1343 31.4338 58.733 30.1167 58.9746 28.6833C59.2163 27.2499 59.0901 25.7646 58.6121 24.4154C58.134 23.0661 57.3256 21.9136 56.289 21.1037C55.2525 20.2937 54.0344 19.8626 52.789 19.8651C51.1214 19.8684 49.5231 20.648 48.345 22.0326C47.1668 23.4172 46.5051 25.2937 46.5051 27.2502ZM52.789 22.9944C53.5069 22.9919 54.2093 23.2394 54.8072 23.7056C55.4051 24.1717 55.8717 24.8355 56.1479 25.6129C56.4241 26.3904 56.4974 27.2464 56.3587 28.0728C56.2199 28.8992 55.8753 29.6586 55.3684 30.2551C54.8615 30.8515 54.2152 31.2581 53.5113 31.4233C52.8074 31.5886 52.0775 31.505 51.414 31.1833C50.7506 30.8615 50.1834 30.3161 49.7844 29.6159C49.3853 28.9158 49.1723 28.0925 49.1723 27.2502C49.1723 26.1237 49.553 25.0431 50.231 24.2453C50.9089 23.4476 51.8288 22.9977 52.789 22.9944Z" fill="white"/>
<path d="M32.1131 27.6634C32.3633 27.9529 32.7006 28.1148 33.052 28.114C33.4061 28.1127 33.7462 27.9514 34.0015 27.6634L51.413 7.23564C51.6587 6.93894 51.7961 6.54155 51.7961 6.12787C51.7961 5.71419 51.6587 5.31684 51.413 5.02014L47.5188 0.463926C47.3966 0.317075 47.2506 0.200381 47.0894 0.120709C46.9281 0.0410364 46.7549 0 46.58 0C46.405 0 46.2319 0.0410364 46.0706 0.120709C45.9094 0.200381 45.7634 0.317075 45.6412 0.463926L33.1587 15.0963L27.3335 8.26204C27.2103 8.11324 27.0626 7.99544 26.8994 7.91581C26.7361 7.83618 26.5608 7.79641 26.384 7.79892C26.0264 7.80423 25.6851 7.97522 25.4345 8.27457L21.4977 13.031C21.2533 13.3235 21.1165 13.7167 21.1165 14.1263C21.1165 14.5358 21.2533 14.929 21.4977 15.2215L32.1131 27.6634ZM26.4053 11.5916L32.2198 18.4259C32.3428 18.5712 32.489 18.6865 32.6502 18.7652C32.8113 18.8439 32.9841 18.8845 33.1587 18.8845C33.3332 18.8845 33.506 18.8439 33.6672 18.7652C33.8283 18.6865 33.9746 18.5712 34.0975 18.4259L46.58 3.79346L48.5751 6.13414L33.052 24.3464L24.3249 14.12L26.4053 11.5916Z" fill="white"/>
</svg>
